<svg width="45" height="50" viewBox="0 0 45 50" fill="none" xmlns="http://www.w3.org/2000/svg">
    <path fill-rule="evenodd" clip-rule="evenodd" d="M21.472 8.743a6.554 6.554 0 1 0-12.359 0h-5.97A3.143 3.143 0 0 0 0 11.887v22.55a3.143 3.143 0 0 0 3.143 3.144h27.05a.393.393 0 0 0 .392-.393v-7.846a6.554 6.554 0 1 0 0-12.362V9.137a.393.393 0 0 0-.393-.393h-8.72z" fill="url(#e13iy7k47a)"/>
    <g filter="url(#c59rzepdgb)">
        <path fill-rule="evenodd" clip-rule="evenodd" d="M13.344 11.59c0-.216.175-.393.392-.393l27.048-.078a3.144 3.144 0 0 1 3.153 3.134L44 36.803a3.143 3.143 0 0 1-3.134 3.153l-5.97.017a6.554 6.554 0 1 1-12.361.035l-8.718.026a.393.393 0 0 1-.394-.392l-.022-7.845a6.554 6.554 0 1 0-.035-12.362l-.023-7.844z" fill="url(#yxj6xkx0tc)" fill-opacity=".6"/>
    </g>
    <defs>
        <linearGradient id="e13iy7k47a" x1="16" y1="38.005" x2="5.996" y2="-7.817" gradientUnits="userSpaceOnUse">
            <stop stop-color="#0289FE"/>
            <stop offset=".995" stop-color="#004EBF"/>
        </linearGradient>
        <linearGradient id="yxj6xkx0tc" x1="29.074" y1="11.119" x2="36.904" y2="46.987" gradientUnits="userSpaceOnUse">
            <stop stop-color="#BDFAFF"/>
            <stop offset=".995" stop-color="#00C8D8"/>
        </linearGradient>
        <filter id="c59rzepdgb" x="11.772" y="9.547" width="33.801" height="40.755" filterUnits="userSpaceOnUse" color-interpolation-filters="sRGB">
            <feFlood flood-opacity="0" result="BackgroundImageFix"/>
            <feGaussianBlur in="BackgroundImage" stdDeviation=".786"/>
            <feComposite in2="SourceAlpha" operator="in" result="effect1_backgroundBlur_492_752"/>
            <feBlend in="SourceGraphic" in2="effect1_backgroundBlur_492_752" result="shape"/>
            <feGaussianBlur stdDeviation=".196" result="effect2_foregroundBlur_492_752"/>
        </filter>
    </defs>
</svg>
