<svg width="18" height="19" viewBox="0 0 18 19" fill="none" xmlns="http://www.w3.org/2000/svg">
    <path d="M17.372 7.647a.628.628 0 0 0-.627.628v8.473H1.255V1.26H9.73a.628.628 0 0 0 0-1.255H.628A.628.628 0 0 0 0 .632v16.744c0 .347.281.628.628.628h16.744a.628.628 0 0 0 .628-.628V8.275a.628.628 0 0 0-.628-.628z" fill="#00124F"/>
    <path d="M18 .62c0-.024-.005-.046-.007-.071-.002-.018-.002-.034-.007-.052-.005-.02-.014-.043-.02-.063L17.948.38c-.01-.018-.018-.036-.03-.054-.008-.018-.017-.036-.03-.054L17.852.23c-.015-.018-.029-.036-.047-.052L17.8.168l-.033-.026a.522.522 0 0 0-.057-.043c-.015-.011-.033-.018-.051-.027-.018-.009-.039-.02-.059-.027a.42.42 0 0 0-.058-.018c-.02-.004-.038-.011-.059-.016-.022-.004-.045-.004-.067-.006-.016 0-.03-.005-.045-.005h-4.175a.628.628 0 0 0 0 1.255h2.735L8.54 9.2a.626.626 0 1 0 .918.855l7.286-7.827v2.581a.628.628 0 0 0 1.255 0V.621z" fill="#00124F"/>
</svg>
