<svg width="28" height="28" viewBox="0 0 28 28" fill="none" xmlns="http://www.w3.org/2000/svg">
    <path d="M26.88 0H1.12C.5 0 0 .5 0 1.12v25.76C0 27.5.5 28 1.12 28h25.76c.62 0 1.12-.5 1.12-1.12V1.12C28 .5 27.5 0 26.88 0zm-5.344 10.14c.01.164.01.335.01.503 0 5.138-3.913 11.057-11.063 11.057-2.205 0-4.25-.64-5.971-1.743.315.035.616.049.938.049 1.82 0 3.493-.616 4.826-1.659a3.888 3.888 0 0 1-3.633-2.695c.599.088 1.138.088 1.754-.07a3.885 3.885 0 0 1-3.112-3.815v-.049a3.89 3.89 0 0 0 1.754.493 3.89 3.89 0 0 1-1.733-3.234c0-.724.19-1.386.529-1.96a11.035 11.035 0 0 0 8.015 4.064C13.3 8.438 15.274 6.3 17.647 6.3a3.88 3.88 0 0 1 2.839 1.225 7.68 7.68 0 0 0 2.467-.935c-.29.9-.9 1.66-1.708 2.139a7.688 7.688 0 0 0 2.24-.605 8.147 8.147 0 0 1-1.95 2.015z" fill="#fff"/>
</svg>
