<svg width="55" height="50" viewBox="0 0 55 50" fill="none" xmlns="http://www.w3.org/2000/svg">
    <path fill-rule="evenodd" clip-rule="evenodd" d="M31.475 8.739a6.554 6.554 0 1 0-12.362 0h-5.969a3.143 3.143 0 0 0-3.143 3.143v22.55a3.143 3.143 0 0 0 3.143 3.144h27.049a.393.393 0 0 0 .393-.393v-7.845a6.554 6.554 0 1 0 0-12.362V9.132a.393.393 0 0 0-.393-.393h-8.718z" fill="url(#4ejtvj5wla)"/>
    <g filter="url(#jrzeyi7khb)">
        <path fill-rule="evenodd" clip-rule="evenodd" d="M23.34 11.59c0-.217.176-.393.393-.394l27.048-.078a3.144 3.144 0 0 1 3.153 3.135l.064 22.55a3.143 3.143 0 0 1-3.134 3.153l-5.968.017a6.554 6.554 0 1 1-12.362.035l-8.719.025a.393.393 0 0 1-.394-.392l-.022-7.844a6.554 6.554 0 1 0-.036-12.361l-.022-7.846z" fill="url(#k27xignznc)" fill-opacity=".6"/>
    </g>
    <g filter="url(#hgflaozwzd)">
        <circle cx="10.492" cy="23.247" r="9.693" transform="rotate(.242 10.492 23.247)" fill="url(#itjegymw5e)" fill-opacity=".6"/>
    </g>
    <path d="M10.5 16v9" stroke="#fff" stroke-width="2" stroke-linecap="round"/>
    <circle cx="10.5" cy="29.5" r="1.5" fill="#fff"/>
    <defs>
        <linearGradient id="4ejtvj5wla" x1="26" y1="38" x2="15.998" y2="-7.816" gradientUnits="userSpaceOnUse">
            <stop stop-color="#0289FE"/>
            <stop offset=".995" stop-color="#004EBF"/>
        </linearGradient>
        <linearGradient id="k27xignznc" x1="39.071" y1="11.118" x2="46.901" y2="46.986" gradientUnits="userSpaceOnUse">
            <stop stop-color="#BDFAFF"/>
            <stop offset=".995" stop-color="#00C8D8"/>
        </linearGradient>
        <linearGradient id="itjegymw5e" x1="2.714" y1="11.875" x2="13.4" y2="35.202" gradientUnits="userSpaceOnUse">
            <stop stop-color="#00C8D8"/>
            <stop offset="1" stop-color="#BDFAFF"/>
        </linearGradient>
        <filter id="jrzeyi7khb" x="21.769" y="9.547" width="33.801" height="40.754" filterUnits="userSpaceOnUse" color-interpolation-filters="sRGB">
            <feFlood flood-opacity="0" result="BackgroundImageFix"/>
            <feGaussianBlur in="BackgroundImage" stdDeviation=".786"/>
            <feComposite in2="SourceAlpha" operator="in" result="effect1_backgroundBlur_492_1196"/>
            <feBlend in="SourceGraphic" in2="effect1_backgroundBlur_492_1196" result="shape"/>
            <feGaussianBlur stdDeviation=".196" result="effect2_foregroundBlur_492_1196"/>
        </filter>
        <filter id="hgflaozwzd" x="-1.201" y="11.554" width="23.386" height="23.386" filterUnits="userSpaceOnUse" color-interpolation-filters="sRGB">
            <feFlood flood-opacity="0" result="BackgroundImageFix"/>
            <feGaussianBlur in="BackgroundImage" stdDeviation="1"/>
            <feComposite in2="SourceAlpha" operator="in" result="effect1_backgroundBlur_492_1196"/>
            <feBlend in="SourceGraphic" in2="effect1_backgroundBlur_492_1196" result="shape"/>
            <feGaussianBlur stdDeviation=".25" result="effect2_foregroundBlur_492_1196"/>
        </filter>
    </defs>
</svg>
